<svg xmlns="http://www.w3.org/2000/svg" viewBox="0 0 447.3 398.62" fill="#1d1d1f">
  <path d="M417.89,85.94l28.45,30.62c1.41,1.52.98,3.96.5,5.7-1.12,1.58-2.65,2.83-4.69,2.83l-24.18.03-.03,269.02c0,2.69-3.2,4.49-5.58,4.47H89.86c-2.89.07-5.23-1.63-5.92-4.44l-.02-74.74c0-3.82,2.26-6.38,6.17-6.38l58.64.02v-19.85s-.03-24.7-.03-24.7v-21.54s-7.2-8.53-7.2-8.53c-7.71.68-15.34.77-23.1,0l-6.01,7.11-11.63,13.76c-1.5,1.78-3.81,2.24-6.02,1.31l-22.59-9.48-9.09-3.9c-1.89-.81-3.41-2.69-3.23-4.91l2.12-27.02-12.49-12.49-3.65-4.02-26.31,2.49c-2.89.27-5.23-1.04-6.33-3.75l-8.88-21.76-3.83-9.4c-.91-2.24-.43-4.77,1.47-6.4l20.45-17.52c-.81-7.77-.7-15.49-.05-23.38l-7.34-6.33-11.37-9.48-2.4-2.42c-1.19-1.2-1.56-3.19-.93-4.82l1.67-4.3,4.69-11.64,7.19-17.26c1.11-1.89,2.94-2.81,5.22-2.92l26.7,2.81c5.18-5.98,10.55-11.23,16.43-16.36l-2.72-27.29c.02-2.53,1.34-4.49,3.67-5.35l26.75-11.33,4.61-1.95c2.04-.86,4.63-.62,6.18,1.25l17,20.58c.27.32.91.54,1.29.5,7.34-.66,14.52-.76,21.88-.09.73.07,1.37-.34,1.82-.9l16.05-19.61c1.85-2.26,4.45-2.72,7.08-1.62l21.65,9.04,10.3,4.59c2.27,1.01,2.71,3.75,2.49,5.95l-2.62,25.89,5.38,5.14c3.93,3.75,7.56,7.54,11.22,11.64l26.15-2.82c2.61-.28,4.98,1.08,5.98,3.52l10.36,25.29,2.74,6.9c.77,1.95.41,4.13-1.16,5.54l-2.15,1.93-9.98,8.48-8.68,7.4c.64,7.86.89,15.48-.1,23.39l20.36,17.31c1.58,1.34,2.7,3.67,1.89,5.67l-6.5,16.03-6.65,16.37c-.93,2.29-3.14,3.67-5.6,3.45l-26.85-2.48-2.06,2.23-13.84,13.91.33,6.82.43.45,19.7-.04c2.5.12,5.19,2.08,5.19,4.99l.07,39.75,18.68-.04h20.14s13.75.04,13.75.04c.14,0,.35-.32.39-.6l-.03-74.98c.56-3.46,3.24-5.14,6.57-5.14h58.41s.02-60.58.02-60.58c0-.24,0-.51-.1-.51h-.58s-23.93-.06-23.93-.06c-1.85,0-3.38-1.64-4.04-2.9-.87-1.65-.82-3.96.49-5.39l13.12-14.23,25.04-26.98,24.11-25.77c1.87-2,5.42-3.02,7.52-.77l24.5,26.29,9.93,10.64Z"/>
  <path d="M199.09,130.78c0,38.2-30.97,69.16-69.17,69.16s-69.17-30.97-69.17-69.16,30.97-69.16,69.17-69.16,69.17,30.97,69.17,69.16ZM188.7,130.78c0-32.46-26.31-58.77-58.77-58.77s-58.77,26.31-58.77,58.77,26.31,58.77,58.77,58.77,58.77-26.31,58.77-58.77Z"/>
  <path d="M98.74,136.22l-3.22-3.17c-2.15-2.11-1.91-5.44.29-7.48,1.5-1.39,4.04-2.17,5.86-.81l3.99,3.68,15.71,15.5,3.21-3.3,32.68-33.41c1.65-1.69,4.05-2.08,5.98-.91,2.7,1.63,3.86,5.39,1.64,7.76l-3.6,3.84-11.4,11.63-19.27,19.76-5,5.15c-2.15,2.21-5.6,2.76-8.05.34l-18.81-18.58Z"/>
</svg>
